<?xml version="1.0" encoding="UTF-8"?>
<svg xmlns="http://www.w3.org/2000/svg" width="900" height="330" viewBox="0 0 900 330">
  <rect width="100%" height="100%" fill="#f8f9fb"/>
  
  <text x="450" y="28" text-anchor="middle" font-size="18" font-weight="bold" fill="#2c3e50">M5: HOC Console Architecture</text>
  <rect x="40" y="60" width="150" height="180" rx="10" fill="#34495e"/>
  <text x="115" y="90" text-anchor="middle" fill="white" font-size="13">ROS 2 Topics</text>
  <text x="115" y="120" text-anchor="middle" fill="#ecf0f1" font-size="11">/risk/status</text>
  <text x="115" y="142" text-anchor="middle" fill="#ecf0f1" font-size="11">/monitor/distribution_metrics</text>
  <text x="115" y="164" text-anchor="middle" fill="#ecf0f1" font-size="11">/risk/alerts</text>
  <polygon points="200,150 240,150 240,140 260,160 240,180 240,170 200,170" fill="#95a5a6"/>
  <rect x="270" y="95" width="160" height="90" rx="10" fill="#16a085"/>
  <text x="350" y="130" text-anchor="middle" fill="white" font-size="13">hoc_server</text>
  <text x="350" y="152" text-anchor="middle" fill="white" font-size="11">WebSocket :8765</text>
  <polygon points="440,140 480,140 480,130 500,150 480,170 480,160 440,160" fill="#95a5a6"/>
  <rect x="510" y="60" width="350" height="180" rx="12" fill="#ffffff" stroke="#bdc3c7" stroke-width="2"/>
  <text x="685" y="95" text-anchor="middle" fill="#2c3e50" font-size="14" font-weight="bold">Dashboard</text>
  <rect x="530" y="110" width="140" height="50" rx="6" fill="#fdecea" stroke="#e74c3c"/>
  <text x="600" y="140" text-anchor="middle" fill="#c0392b" font-size="13">R2 · shift detected</text>
  <rect x="690" y="110" width="150" height="50" rx="6" fill="#eaf4fb" stroke="#3498db"/>
  <text x="765" y="140" text-anchor="middle" fill="#2471a3" font-size="12">KL / MMD charts</text>
  <rect x="530" y="175" width="310" height="45" rx="6" fill="#f4f6f7"/>
  <text x="685" y="203" text-anchor="middle" fill="#566573" font-size="11">Export experiment · Acknowledge risk · E-Stop</text>
  <text x="450" y="290" text-anchor="middle" font-size="12" fill="#7f8c8d">Architecture diagram — see m5-hoc-dashboard.svg for UI wireframe</text>

</svg>
